<svg width="23" height="6" viewBox="0 0 23 6" fill="none" xmlns="http://www.w3.org/2000/svg">
<path d="M0.421875 2.96484C0.421875 2.22266 0.65625 1.61719 1.125 1.14844C1.60156 0.671875 2.23047 0.433594 3.01172 0.433594C3.81641 0.433594 4.45312 0.671875 4.92188 1.14844C5.39062 1.61719 5.625 2.23438 5.625 3V3.43359C5.625 4.16797 5.39062 4.76953 4.92188 5.23828C4.46094 5.69922 3.82812 5.92969 3.02344 5.92969C2.25 5.92969 1.625 5.70703 1.14844 5.26172C0.679688 4.80859 0.4375 4.21875 0.421875 3.49219V2.96484ZM8.8125 2.96484C8.8125 2.22266 9.04688 1.61719 9.51562 1.14844C9.99219 0.671875 10.6211 0.433594 11.4023 0.433594C12.207 0.433594 12.8438 0.671875 13.3125 1.14844C13.7812 1.61719 14.0156 2.23438 14.0156 3V3.43359C14.0156 4.16797 13.7812 4.76953 13.3125 5.23828C12.8516 5.69922 12.2188 5.92969 11.4141 5.92969C10.6406 5.92969 10.0156 5.70703 9.53906 5.26172C9.07031 4.80859 8.82812 4.21875 8.8125 3.49219V2.96484ZM17.2031 2.96484C17.2031 2.22266 17.4375 1.61719 17.9062 1.14844C18.3828 0.671875 19.0117 0.433594 19.793 0.433594C20.5977 0.433594 21.2344 0.671875 21.7031 1.14844C22.1719 1.61719 22.4062 2.23438 22.4062 3V3.43359C22.4062 4.16797 22.1719 4.76953 21.7031 5.23828C21.2422 5.69922 20.6094 5.92969 19.8047 5.92969C19.0312 5.92969 18.4062 5.70703 17.9297 5.26172C17.4609 4.80859 17.2188 4.21875 17.2031 3.49219V2.96484Z" fill="#0C57FB"/>
</svg>
