<svg width="20" height="21" viewBox="0 0 20 21" fill="none" xmlns="http://www.w3.org/2000/svg">
<path d="M4.30976 18.1423C5.35354 13.8123 4.11448 13.6642 4.11448 11.5631C4.11448 10.8628 4.66667 9.18604 4.74747 8.37123C4.93603 6.49918 4.47138 6.99749 5.83838 5.61029L5.91919 3.68436C6.60606 3.02443 6.94949 2.43184 7.79125 2.64059C8.30303 4.16248 7.33333 3.68436 7.23906 5.46214C7.81145 6.22308 8.19529 6.29716 8.62626 7.25338C9.17172 8.46551 8.78115 8.45204 9.81145 9.46887C11.3266 9.64396 12.2424 9.65069 13.3266 8.55978C13.4411 7.3948 12.7677 7.49581 13.4545 6.4251C13.9259 5.6911 14.3906 5.29379 15.2727 5.59009C15.5623 6.73487 14.2626 6.97056 14.6667 8.24328C16.4108 8.41837 16.8148 6.01433 18.1481 5.89312C18.1481 8.45877 15.468 8.79547 15.4074 10.883C15.367 12.1894 16.5253 15.7854 17.697 16.553C18.7273 14.9706 19.8384 13.2467 19.9663 11.3342C20.862 -1.71631 3.59596 -4.09342 0.316498 7.33419C0.148148 7.92005 0.047138 8.51264 0 9.10524V10.6204C0.289562 14.378 2.60606 17.6776 4.30976 18.1423Z" fill="white"/>
<path d="M9.35984 19.8932C14.0265 20.4454 13.5349 19.0043 12.6124 13.6912C12.2487 11.5969 11.8245 10.4926 9.33964 10.6879C7.79082 12.5262 8.57197 16.1087 8.62584 17.6777C8.66624 18.9168 8.45749 18.9976 9.35984 19.8932ZM14.7268 18.6138C15.508 18.5195 15.6427 18.3579 16.2757 17.8528C16.3767 16.7821 15.6427 15.0582 14.4979 14.7148C13.9592 15.7518 14.1141 17.5969 14.7268 18.6138ZM7.03661 19.5027C7.03661 18.1963 7.19823 15.4959 6.52483 14.5666C5.62921 14.8293 5.9053 15.5969 5.89857 17.2333C5.89183 18.432 5.66961 19.3814 7.03661 19.5027Z" fill="white"/>
</svg>
